<svg xmlns="http://www.w3.org/2000/svg" xml:space="preserve" width="1500" height="498" data-id="lg_7RANNrzcSTEIKjzKAn" data-version="1" viewBox="0 0 1500 498"><g data-padding="20"><g transform="translate(10 8.909)scale(.96422)"><path fill="#d579ff" d="M1047.013 9.275V9.06c0-.645-.215-1.29-.43-1.72 0-.215-.215-.43-.215-.43a6.5 6.5 0 0 0-.86-1.72 6.5 6.5 0 0 0-1.075-1.505c0-.215-.215-.215-.215-.43l-1.29-1.29h-.215c-.215-.215-.645-.43-.86-.645-.215 0-.43-.215-.43-.215-.215 0-.215-.215-.43-.215-1.075-.43-2.365-.86-3.44-.86h-2.365c-.645 0-1.075.215-1.72.43-.215 0-.43.215-.645.215a6.5 6.5 0 0 0-1.72.86l-6.88 4.085-28.81 16.77-13.76-10.75-12.04-9.245a10.1 10.1 0 0 0-6.88-2.15h-1.505c-2.795 0-5.59 1.075-7.525 3.225-.645.645-1.075 1.29-1.505 1.935L926.613 22.39 899.308 2.395a10.32 10.32 0 0 0-12.47 0l-27.95 19.78L837.603 5.19l-3.01-2.365c-.215-.215-.645-.43-.86-.645s-.43-.215-.645-.43h-.215c-1.935-1.075-4.3-1.505-6.45-1.29h-.43c-.43 0-.86.215-1.29.215-.215 0-.43.215-.86.215-.215 0-.645.215-.86.215s-.215.215-.43.215c-.43.215-.645.43-1.075.645l-2.58 1.935-25.155 17.845-22.145-18.92a10.75 10.75 0 0 0-10.105-2.15h-.215c-1.075.43-2.15.86-3.01 1.505l-17.845 13.33-8.17 6.235-24.295-18.92-.43-.43a10.86 10.86 0 0 0-15.05 1.935c-2.15 3.01-2.795 6.665-1.72 9.89v.86c-1.29 17.63-11.395 157.595-33.54 279.07H498.763c-3.225 0-6.235 1.505-8.385 3.87-1.935 2.365-2.795 5.805-2.365 8.815 25.37 130.29 55.04 191.135 93.955 191.135h335.83c40.42 0 70.735-64.93 95.89-204.25 18.705-103.845 28.81-220.375 32.465-264.45l.645-7.955V10.35c.215-.43.215-.645.215-1.075M917.798 476.47c-11.825 0-42.57-16.985-72.67-173.935-.86-5.16-5.375-8.815-10.535-8.815H678.288c18.705-103.415 28.595-218.655 32.035-261.87l14.62 11.395c1.935 1.505 4.3 2.15 6.45 2.365 2.365 0 4.515-.645 6.45-2.15l25.585-19.35 10.105 8.6 12.04 10.32c3.655 3.225 9.245 3.44 13.115.645l27.95-19.78 6.45 5.16 17.63 14.19c1.505 1.075 3.01 1.935 4.73 2.15.43 0 1.075.215 1.505.215q3.547 0 6.45-1.935l28.38-19.995 27.09 19.78c3.655 2.58 8.6 2.795 12.255.215l1.075-.645 29.24-19.35 25.37 19.78.215.215c.43.215.645.43 1.075.645.215 0 .43.215.645.215.215.215.645.215.86.43.215 0 .43.215.645.215s.645.215.86.215h3.01c.215 0 .645 0 .86-.215.215 0 .43 0 .645-.215.215 0 .645-.215.86-.215s.43-.215.645-.215.43-.215.645-.43c.215 0 .43-.215.645-.215l10.965-6.45 13.975-8.17c-3.87 45.15-13.76 159.1-32.035 260.365-29.025 168.56-61.06 186.835-73.53 186.835m-335.83 0c-11.395 0-40.635-16.125-70.09-161.25h314.115c16.125 81.27 34.185 134.16 55.255 161.25Zm409.145-367.65c0 6.02-4.73 10.75-10.75 10.75h-242.95c-6.02 0-10.75-4.73-10.75-10.75s4.73-10.75 10.75-10.75h242.95c6.02 0 10.75 4.73 10.75 10.75m-19.35 60.2c0 6.02-4.73 10.75-10.75 10.75h-245.1c-6.02 0-10.75-4.73-10.75-10.75s4.73-10.75 10.75-10.75h245.1c6.02 0 10.75 4.73 10.75 10.75"/><rect width="462.572" height="250.815" x="136.612" y="-276.007" fill="none" rx="0" ry="0" transform="translate(399.41 399.36)"/><path fill="#fff" stroke="#2e024e" stroke-width="1.97" d="M559.938 232.85h-16.99v-86.8h45.26v14.88h-28.27v21.7h24.55v14.38h-24.55Zm52.45 0h-16.99v-86.8h16.99Zm62.12 0h-11.53l-23.19-47.99-.62.25.75 14.63v33.11h-15.63v-86.8h12.53l22.81 49.85.62-.25-1.36-15.25v-34.35h15.62Zm65.47 0h-16.61l-2.61-13.77h-19.59l-2.6 13.77h-16.87l16.74-86.8h25.67Zm-29.01-70.68h-.25l-4.84 28.89-2.72 14.76h15.5l-2.86-14.76Zm86.43 70.68h-11.54l-23.18-47.99-.62.25.74 14.63v33.11h-15.62v-86.8h12.52l22.82 49.85.62-.25-1.37-15.25v-34.35h15.63Zm35.96-14.39h21.82v14.39h-31.5q-8.18-7.69-12.4-19.47-4.21-11.78-4.21-24.24t4.71-24q4.71-11.53 14.01-19.09h29.39v14.88h-21.82q-3.35 3.84-5.77 12.4-2.42 8.55-2.42 16.37 0 7.81 2.42 16.36 2.42 8.56 5.77 12.4Zm47.86 14.39h-16.99v-86.8h16.99Zm65.47 0h-16.61l-2.61-13.77h-19.59l-2.6 13.77h-16.87l16.74-86.8h25.67Zm-29.01-70.68h-.25l-4.84 28.89-2.73 14.76h15.5l-2.85-14.76Zm78.98 70.68h-42.78v-86.8h16.99v72.41h25.79Zm-401.13 96.31h21.83v14.38h-31.5q-8.18-7.68-12.4-19.46-4.21-11.78-4.21-24.25 0-12.46 4.71-23.99t14.01-19.1h29.39v14.88h-21.83q-3.34 3.85-5.76 12.4-2.42 8.56-2.42 16.37t2.42 16.37 5.76 12.4Zm45.76-72.42h25.54q8.68 7.07 12.9 18.98 4.22 11.9 4.22 24.49 0 12.58-4.1 23.87-4.09 11.28-13.02 19.46h-25.54q-8.93-8.18-13.02-19.46-4.09-11.29-4.09-23.87 0-12.59 4.21-24.49 4.22-11.91 12.9-18.98Zm8.31 72.42h8.93q3.1-3.6 5.27-11.72t2.17-17.17-2.11-17.05-5.21-11.6h-9.05q-3.1 3.6-5.27 11.6t-2.17 17.05 2.17 17.17 5.27 11.72Zm75.13-25.3h.5-.5.5l6.57-27.15 5.33-19.97h15.5l5.58 86.8h-16.24l-2.36-47.36h-.62l-8.93 34.96h-10.16l-8.93-34.96h-.62l-2.36 47.36h-16.24l5.58-86.8h15.5l5.33 19.97Zm72.06-32.24h-11.78v31h11.03q6.82-5.58 6.82-16.36 0-4.59-1.8-8.68-1.79-4.1-4.27-5.96Zm-11.78 71.92h-16.74v-86.8h33.6q8.43 3.72 13.33 11.41t4.9 17.92-5.09 18.91q-5.08 8.68-15 12.28h-15Zm97.7 0h-16.62l-2.6-13.76h-19.59l-2.61 13.76h-16.86l16.74-86.8h25.67Zm-29.02-70.68h-.25l-4.83 28.9-2.73 14.75h15.5l-2.85-14.75Zm44.15-16.12h29.76v14.88h-23.81l-.37.75 19.84 36.21q6.07 10.91 6.07 16.61 0 12.53-8.31 18.35h-32.86v-14.38h25.67l.37-.74-22.32-40.06q-4.83-8.68-4.83-14.13 0-12.9 10.79-17.49Zm48.11 0h29.76v14.88h-23.81l-.37.75 19.84 36.21q6.07 10.91 6.07 16.61 0 12.53-8.3 18.35h-32.86v-14.38h25.66l.38-.74-22.32-40.06q-4.84-8.68-4.84-14.13 0-12.9 10.79-17.49Z"/></g><path fill="transparent" stroke="transparent" d="M470.5 0h559v498h-559z"/></g></svg>